<svg width="156" height="24" viewBox="0 0 156 24" fill="none" xmlns="http://www.w3.org/2000/svg">
<g id="Group 54">
<g id="Group 53">
<path id="Vector" d="M154.162 5.65593C153.399 5.99362 152.589 6.2154 151.76 6.31393C152.634 5.79136 153.288 4.96894 153.6 3.99993C152.78 4.48793 151.881 4.82993 150.944 5.01493C150.315 4.34151 149.48 3.89489 148.571 3.74451C147.662 3.59413 146.728 3.74842 145.915 4.18338C145.103 4.61834 144.456 5.30961 144.077 6.14972C143.698 6.98983 143.607 7.93171 143.818 8.82893C142.155 8.74558 140.528 8.31345 139.043 7.56059C137.558 6.80773 136.248 5.75097 135.198 4.45893C134.826 5.09738 134.631 5.82315 134.632 6.56193C134.632 8.01193 135.37 9.29293 136.492 10.0429C135.828 10.022 135.179 9.84271 134.598 9.51993V9.57193C134.598 10.5376 134.932 11.4735 135.544 12.221C136.155 12.9684 137.006 13.4814 137.953 13.6729C137.337 13.84 136.69 13.8646 136.063 13.7449C136.33 14.5762 136.85 15.3031 137.551 15.824C138.251 16.3449 139.097 16.6337 139.97 16.6499C139.102 17.3313 138.109 17.8349 137.047 18.1321C135.985 18.4293 134.874 18.5142 133.779 18.3819C135.691 19.6114 137.916 20.264 140.189 20.2619C147.882 20.2619 152.089 13.8889 152.089 8.36193C152.089 8.18193 152.084 7.99993 152.076 7.82193C152.895 7.23009 153.602 6.49695 154.163 5.65693L154.162 5.65593Z" fill="white"/>
</g>
<g id="Group 50">
<path id="Vector_2" d="M12 2C6.477 2 2 6.477 2 12C2 16.991 5.657 21.128 10.438 21.879V14.89H7.898V12H10.438V9.797C10.438 7.291 11.93 5.907 14.215 5.907C15.309 5.907 16.453 6.102 16.453 6.102V8.562H15.193C13.95 8.562 13.563 9.333 13.563 10.124V12H16.336L15.893 14.89H13.563V21.879C18.343 21.129 22 16.99 22 12C22 6.477 17.523 2 12 2Z" fill="white"/>
</g>
<g id="Group 51">
<path id="Vector_3" d="M56 2C58.717 2 59.056 2.01 60.122 2.06C61.187 2.11 61.912 2.277 62.55 2.525C63.21 2.779 63.766 3.123 64.322 3.678C64.8305 4.1779 65.224 4.78259 65.475 5.45C65.722 6.087 65.89 6.813 65.94 7.878C65.987 8.944 66 9.283 66 12C66 14.717 65.99 15.056 65.94 16.122C65.89 17.187 65.722 17.912 65.475 18.55C65.2247 19.2178 64.8311 19.8226 64.322 20.322C63.822 20.8303 63.2173 21.2238 62.55 21.475C61.913 21.722 61.187 21.89 60.122 21.94C59.056 21.987 58.717 22 56 22C53.283 22 52.944 21.99 51.878 21.94C50.813 21.89 50.088 21.722 49.45 21.475C48.7823 21.2245 48.1775 20.8309 47.678 20.322C47.1694 19.8222 46.7759 19.2175 46.525 18.55C46.277 17.913 46.11 17.187 46.06 16.122C46.013 15.056 46 14.717 46 12C46 9.283 46.01 8.944 46.06 7.878C46.11 6.812 46.277 6.088 46.525 5.45C46.7752 4.78218 47.1688 4.17732 47.678 3.678C48.1777 3.16923 48.7824 2.77573 49.45 2.525C50.088 2.277 50.812 2.11 51.878 2.06C52.944 2.013 53.283 2 56 2ZM56 7C54.6739 7 53.4021 7.52678 52.4645 8.46447C51.5268 9.40215 51 10.6739 51 12C51 13.3261 51.5268 14.5979 52.4645 15.5355C53.4021 16.4732 54.6739 17 56 17C57.3261 17 58.5979 16.4732 59.5355 15.5355C60.4732 14.5979 61 13.3261 61 12C61 10.6739 60.4732 9.40215 59.5355 8.46447C58.5979 7.52678 57.3261 7 56 7ZM62.5 6.75C62.5 6.41848 62.3683 6.10054 62.1339 5.86612C61.8995 5.6317 61.5815 5.5 61.25 5.5C60.9185 5.5 60.6005 5.6317 60.3661 5.86612C60.1317 6.10054 60 6.41848 60 6.75C60 7.08152 60.1317 7.39946 60.3661 7.63388C60.6005 7.8683 60.9185 8 61.25 8C61.5815 8 61.8995 7.8683 62.1339 7.63388C62.3683 7.39946 62.5 7.08152 62.5 6.75ZM56 9C56.7956 9 57.5587 9.31607 58.1213 9.87868C58.6839 10.4413 59 11.2044 59 12C59 12.7956 58.6839 13.5587 58.1213 14.1213C57.5587 14.6839 56.7956 15 56 15C55.2044 15 54.4413 14.6839 53.8787 14.1213C53.3161 13.5587 53 12.7956 53 12C53 11.2044 53.3161 10.4413 53.8787 9.87868C54.4413 9.31607 55.2044 9 56 9Z" fill="white"/>
</g>
<g id="Group 52">
<path id="Vector_4" d="M109.543 6.498C110 8.28 110 12 110 12C110 12 110 15.72 109.543 17.502C109.289 18.487 108.546 19.262 107.605 19.524C105.896 20 100 20 100 20C100 20 94.107 20 92.395 19.524C91.45 19.258 90.708 18.484 90.457 17.502C90 15.72 90 12 90 12C90 12 90 8.28 90.457 6.498C90.711 5.513 91.454 4.738 92.395 4.476C94.107 4 100 4 100 4C100 4 105.896 4 107.605 4.476C108.55 4.742 109.292 5.516 109.543 6.498ZM98 15.5L104 12L98 8.5V15.5Z" fill="white"/>
</g>
</g>
</svg>
